<svg width="25" height="25" viewBox="0 0 25 25" fill="none" xmlns="http://www.w3.org/2000/svg">
<g clip-path="url(#clip0_2_4453)">
<rect width="24.4048" height="24.4048" rx="12.2024" fill="white"/>
<path fill-rule="evenodd" clip-rule="evenodd" d="M20.4503 8.61183C20.5662 8.22554 20.4503 7.94162 19.8989 7.94162H18.0755C17.6119 7.94162 17.3983 8.18686 17.2824 8.45737C17.2824 8.45737 16.3551 10.7174 15.0415 12.1854C14.6165 12.6104 14.4234 12.7455 14.1915 12.7455C14.0756 12.7455 13.9079 12.6104 13.9079 12.2241V8.61183C13.9079 8.14818 13.7733 7.94162 13.3869 7.94162H10.5217C10.232 7.94162 10.0578 8.15677 10.0578 8.36073C10.0578 8.80028 10.7144 8.90161 10.7821 10.1378V12.823C10.7821 13.4116 10.6759 13.5184 10.444 13.5184C9.82593 13.5184 8.32245 11.2481 7.43058 8.65051C7.2558 8.14557 7.0805 7.94162 6.6145 7.94162H4.79116C4.27021 7.94162 4.16602 8.18686 4.16602 8.45737C4.16602 8.94029 4.78426 11.3356 7.04429 14.5036C8.55115 16.6668 10.6738 17.8398 12.6055 17.8398C13.7646 17.8398 13.9079 17.5793 13.9079 17.1306V15.4955C13.9079 14.9745 14.0177 14.8706 14.3845 14.8706C14.6552 14.8706 15.1187 15.0058 16.2006 16.0489C17.4368 17.2849 17.6405 17.8398 18.336 17.8398H20.1593C20.6803 17.8398 20.9408 17.5793 20.7905 17.0652C20.6261 16.5529 20.0359 15.8097 19.2526 14.9285C18.8276 14.4262 18.1901 13.8853 17.9971 13.6149C17.7266 13.2672 17.8038 13.1127 17.9971 12.8038C17.9971 12.8038 20.2185 9.67445 20.4503 8.61196V8.61183Z" fill="#555555"/>
</g>
<defs>
<clipPath id="clip0_2_4453">
<rect width="25" height="25" fill="white"/>
</clipPath>
</defs>
</svg>
